<?xml version="1.0" standalone="no"?>
<!DOCTYPE svg PUBLIC "-//W3C//DTD SVG 20010904//EN"
 "http://www.w3.org/TR/2001/REC-SVG-20010904/DTD/svg10.dtd">
<svg version="1.0" xmlns="http://www.w3.org/2000/svg"
 width="700.000000pt" height="700.000000pt" viewBox="0 0 700.000000 700.000000"
 preserveAspectRatio="xMidYMid meet">
<metadata>
Created by potrace 1.14, written by Peter Selinger 2001-2017
</metadata>
<g transform="translate(0.000000,700.000000) scale(0.100000,-0.100000)"
fill="#000000" stroke="none">
<path d="M3368 5788 c-176 -88 -214 -318 -75 -459 173 -176 485 -52 488 195 3
220 -218 361 -413 264z"/>
<path d="M2386 4790 c-72 -23 -134 -73 -171 -141 -25 -46 -29 -65 -29 -129 -1
-125 56 -215 170 -267 48 -22 66 -25 128 -21 130 9 224 82 260 203 66 217
-141 422 -358 355z"/>
<path d="M4465 4800 c-95 -16 -179 -82 -218 -169 -29 -66 -28 -169 3 -235 27
-56 78 -109 135 -139 55 -30 193 -31 245 -3 67 36 109 77 137 134 56 114 30
260 -61 340 -46 40 -82 58 -131 67 -62 12 -67 12 -110 5z"/>
<path d="M1385 3780 c-81 -18 -167 -90 -201 -167 -9 -21 -18 -67 -20 -103 -3
-87 23 -155 83 -214 183 -181 486 -53 486 204 0 183 -170 320 -348 280z"/>
<path d="M3413 3776 c-130 -42 -205 -146 -205 -284 1 -152 130 -282 282 -282
158 0 290 125 292 276 1 82 -16 135 -62 192 -70 89 -204 132 -307 98z"/>
<path d="M5460 3775 c-133 -35 -217 -153 -208 -293 6 -112 58 -190 161 -244
62 -32 185 -32 247 1 140 73 200 237 137 375 -28 60 -39 74 -95 118 -59 47
-161 65 -242 43z"/>
<path d="M2380 2763 c-62 -21 -113 -60 -148 -113 -39 -57 -51 -105 -47 -177
11 -202 215 -324 403 -243 144 62 210 246 138 388 -31 62 -65 95 -130 129 -62
31 -152 38 -216 16z"/>
<path d="M4440 2771 c-176 -57 -260 -235 -190 -398 77 -181 320 -225 466 -84
54 51 79 115 78 201 -1 121 -56 210 -158 260 -48 23 -155 35 -196 21z"/>
<path d="M3425 1741 c-132 -35 -216 -146 -216 -287 0 -109 80 -223 187 -265
49 -19 163 -15 214 8 131 60 199 208 161 350 -16 59 -78 133 -140 167 -57 30
-148 43 -206 27z"/>
</g>
</svg>
